HIERARCHY
ROOT Hips
{
	OFFSET -3.958830 18.904000 13.208200
	CHANNELS 6 Xposition Yposition Zposition Zrotation Yrotation Xrotation 
	JOINT LHipJoint
	{
		OFFSET 0.000000 0.000000 0.000000
		CHANNELS 3 Zrotation Yrotation Xrotation
		JOINT LeftUpLeg
		{
			OFFSET 1.800000 -1.400000 0.085000
			CHANNELS 3 Zrotation Yrotation Xrotation
			JOINT LeftLeg
			{
				OFFSET 2.215000 -6.000000 0.000000
				CHANNELS 3 Zrotation Yrotation Xrotation
				JOINT LeftFoot
				{
					OFFSET 2.500000 -6.900000 0.000000
					CHANNELS 3 Zrotation Yrotation Xrotation
					JOINT LeftToeBase
					{
						OFFSET 0.200000 -0.500000 1.950000
						CHANNELS 3 Zrotation Yrotation Xrotation
						End Site
						{
							OFFSET 0.000000 0.000000 0.000000
						}
					}
				}
			}
		}
	}
	JOINT RHipJoint
	{
		OFFSET 0.000000 0.000000 0.000000
		CHANNELS 3 Zrotation Yrotation Xrotation
		JOINT RightUpLeg
		{
			OFFSET -1.800000 -1.400000 0.085000
			CHANNELS 3 Zrotation Yrotation Xrotation
			JOINT RightLeg
			{
				OFFSET -2.215000 -6.000000 0.000000
				CHANNELS 3 Zrotation Yrotation Xrotation
				JOINT RightFoot
				{
					OFFSET -2.500000 -6.900000 0.000000
					CHANNELS 3 Zrotation Yrotation Xrotation
					JOINT RightToeBase
					{
						OFFSET -0.200000 -0.500000 1.950000
						CHANNELS 3 Zrotation Yrotation Xrotation
						End Site
						{
							OFFSET 0.000000 0.000000 0.000000
						}
					}
				}
			}
		}
	}
	JOINT LowerBack
	{
		OFFSET 0.000000 0.000000 0.000000
		CHANNELS 3 Zrotation Yrotation Xrotation
		JOINT Spine
		{
			OFFSET -0.087000 1.940000 -0.288900
			CHANNELS 3 Zrotation Yrotation Xrotation
			JOINT Spine1
			{
				OFFSET 0.000000 1.950000 0.060000
				CHANNELS 3 Zrotation Yrotation Xrotation
				JOINT Neck
				{
					OFFSET 0.000000 0.000000 0.000000
					CHANNELS 3 Zrotation Yrotation Xrotation
					JOINT Neck1
					{
						OFFSET 0.000000 1.600000 0.340000
						CHANNELS 3 Zrotation Yrotation Xrotation
						JOINT Head
						{
							OFFSET 0.000000 1.667000 -0.240000
							CHANNELS 3 Zrotation Yrotation Xrotation
							End Site
							{
								OFFSET 0.000000 0.000000 0.000000
							}
						}
					}
				}
				JOINT LeftShoulder
				{
					OFFSET 0.000000 0.000000 0.000000
					CHANNELS 3 Zrotation Yrotation Xrotation
					JOINT LeftArm
					{
						OFFSET 2.700000 1.550000 -0.730000
						CHANNELS 3 Zrotation Yrotation Xrotation
						JOINT LeftForeArm
						{
							OFFSET 5.450000 0.000000 0.000000
							CHANNELS 3 Zrotation Yrotation Xrotation
							JOINT LeftHand
							{
								OFFSET 3.450000 0.000000 0.000000
								CHANNELS 3 Zrotation Yrotation Xrotation
								JOINT LeftHandIndex1
								{
									OFFSET 0.750000 0.000000 0.000000
									CHANNELS 3 Zrotation Yrotation Xrotation
									End Site
									{
										OFFSET 0.000000 0.000000 0.000000
									}
								}
							}
						}
					}
				}
				JOINT RightShoulder
				{
					OFFSET 0.000000 0.000000 0.000000
					CHANNELS 3 Zrotation Yrotation Xrotation
					JOINT RightArm
					{
						OFFSET -2.700000 1.550000 -0.730000
						CHANNELS 3 Zrotation Yrotation Xrotation
						JOINT RightForeArm
						{
							OFFSET -5.450000 0.000000 0.000000
							CHANNELS 3 Zrotation Yrotation Xrotation
							JOINT RightHand
							{
								OFFSET -3.450000 0.000000 0.000000
								CHANNELS 3 Zrotation Yrotation Xrotation
								JOINT RightHandIndex1
								{
									OFFSET -0.750000 0.000000 0.000000
									CHANNELS 3 Zrotation Yrotation Xrotation
									End Site
									{
										OFFSET 0.000000 0.000000 0.000000
									}
								}
							}
						}
					}
				}
			}
		}
	}
}
MOTION
Frames: 12
Frame Time: 0.016667
-0.348450 16.834340 -3.524070 -2.474983 18.965222 4.267637 -15.412353 12.971707 2.934586 -3.105139 0.727765 -1.080307 -9.901364 6.598224 10.267010 -0.066557 4.617186 3.008199 0.403020 0.402150 0.306400 18.283792 -9.328471 3.967650 9.074545 7.689908 -35.360872 10.083144 -4.254379 16.739723 0.082550 -2.090282 3.497729 0.396150 0.116270 0.161780 -3.510919 -2.777317 -7.984472 11.187919 -5.345236 15.246305 4.168204 -5.897002 8.947395 0.675727 4.626637 -7.574393 6.345545 -0.388124 29.874807 -1.834400 3.588330 -9.314480 -10.707148 -10.505937 0.013967 2.537916 -15.831810 0.939500 -28.038212 -67.911090 20.158257 -3.834681 3.633221 0.047170 0.211030 -0.016150 0.093660 10.286431 5.164548 4.798206 16.882445 8.731561 1.586280 65.672866 86.513688 50.428566 2.650623 -1.178787 -0.072710 0.127720 -0.091510 -0.112970 
-0.312910 16.777850 -3.504160 -2.072357 18.624050 4.409867 -15.441786 13.009928 2.985434 -4.008573 0.885161 -0.852560 -9.750627 6.645900 10.636071 -0.053734 4.646003 3.003665 0.393410 0.389480 0.295750 18.254729 -9.315276 3.918140 9.071369 7.347329 -34.804565 10.032305 -3.953433 14.978662 0.113474 -1.939063 3.564214 0.390280 0.128030 0.157700 -3.421431 -2.905689 -7.986833 10.392736 -5.343758 15.057317 4.719428 -6.042852 9.150780 0.552212 4.487403 -7.764165 6.041628 -0.221569 30.239730 -1.740610 3.575310 -8.980870 -10.202745 -10.497349 0.145579 2.491981 -15.923744 1.294926 -32.710556 -68.878509 23.642708 -3.841254 3.647037 0.046500 0.215720 -0.024640 0.096350 10.058250 5.294145 4.966421 16.083484 9.869945 2.717691 70.331176 88.845247 55.860493 2.879756 -0.513194 -0.079550 0.134120 -0.086240 -0.111080 
-0.258420 16.692440 -3.471710 -1.611883 17.652661 4.773481 -15.480631 13.035766 3.044377 -5.093476 1.002707 -0.896198 -9.960608 6.800823 11.246610 -0.038883 4.707647 2.980926 0.384520 0.380270 0.292270 18.221695 -9.282908 3.858819 9.188304 6.964102 -33.842925 10.225421 -3.608933 12.536087 0.138723 -1.785466 3.628305 0.386500 0.138340 0.159540 -3.297657 -3.056822 -7.978361 9.409098 -5.175584 14.759590 5.203975 -6.035721 9.375992 0.646625 4.509048 -7.826769 6.081447 0.361306 30.419243 -1.671690 4.172660 -8.950230 -9.322159 -10.145753 0.403489 1.576443 -16.331705 1.942203 -39.321267 -71.652045 29.366138 -3.868827 3.658166 0.047210 0.224260 -0.028850 0.092290 9.056174 5.026463 4.734129 16.405066 11.938132 4.041602 -99.352387 88.406130 -111.577417 3.486293 2.173881 -0.085590 0.138420 -0.077440 -0.114090 
-0.191640 16.623620 -3.436020 -1.574538 16.834814 5.148537 -15.466494 12.952510 3.050780 -5.736124 0.942434 -1.183680 -10.322015 7.032509 12.274251 -0.027330 4.769265 2.947982 0.378960 0.367160 0.301420 18.239457 -9.334824 3.843105 9.670998 6.826616 -33.341617 10.056507 -3.440869 11.458194 0.137150 -1.709421 3.653668 0.373410 0.125040 0.161850 -3.325570 -2.838402 -7.968704 9.612531 -4.955694 14.621983 5.409336 -5.648693 8.229638 1.009816 4.805391 -7.374886 6.887930 0.431101 30.880893 -1.598590 4.532420 -9.301590 -8.237870 -11.239330 1.999557 -0.320139 -16.502327 3.014511 -53.052402 -73.532391 40.356953 -3.918881 3.623667 0.066500 0.212940 -0.017050 0.081780 7.495492 6.895032 1.857273 18.861210 8.573132 -5.993414 110.259577 78.402873 93.617518 2.504250 2.337606 -0.086890 0.132800 -0.073620 -0.124040 
-0.128850 16.580180 -3.390560 -1.171851 16.487247 5.485655 -15.428798 12.864588 3.070695 -6.307403 0.797395 -1.576876 -10.879477 7.410701 13.821406 -0.016931 4.916116 2.892275 0.364040 0.342960 0.305340 18.272757 -9.441178 3.812234 9.535716 6.603250 -33.069156 9.902417 -3.464809 11.401618 0.138981 -1.724592 3.646753 0.364330 0.126980 0.162470 -3.426985 -2.556721 -7.964532 9.828080 -4.776253 14.150258 5.330863 -5.484768 8.954186 0.933500 5.167399 -7.997753 7.665867 0.008283 30.638819 -1.941560 4.515510 -9.438810 -7.551065 -11.838159 2.345725 -2.580343 -17.799618 3.858502 -68.261714 -75.181086 53.172286 -3.991818 3.481408 0.075790 0.217260 -0.020600 0.068660 6.877216 7.179165 2.707282 21.868753 8.097383 -6.783733 128.940845 77.284885 115.396416 1.830503 -0.246331 -0.099150 0.137180 -0.060560 -0.135300 
-0.051520 16.587380 -3.344260 -0.763646 15.848447 5.591495 -15.390203 12.847522 3.119012 -7.277649 0.680051 -1.952438 -10.722215 7.611197 15.442267 -0.000194 5.005538 2.855300 0.349830 0.318510 0.305700 18.303020 -9.526426 3.740654 9.269358 6.191844 -32.502513 9.213783 -3.428769 11.404794 0.142706 -1.710323 3.653771 0.347190 0.120280 0.158690 -3.528496 -2.461903 -7.945943 10.832426 -5.011326 13.954925 4.621808 -5.602182 9.501943 0.973442 4.832125 -8.348040 7.035195 0.053666 31.384104 -2.220800 4.548850 -9.310040 -7.740755 -12.503612 2.575879 -7.254632 -19.500378 4.471514 -75.005376 -73.016263 56.508432 -4.005277 3.431524 0.090260 0.208910 -0.017850 0.059640 6.838173 7.826462 3.303665 24.849398 8.933373 -6.552802 129.485527 75.759174 112.759000 1.909131 -0.312319 -0.105500 0.136620 -0.052890 -0.142430 
0.032260 16.622070 -3.272950 -0.274110 15.242594 5.957837 -15.346431 12.838025 3.179793 -8.331526 0.661065 -2.089899 -10.463469 7.647676 16.297546 0.014068 5.026992 2.839363 0.334490 0.294220 0.313750 18.342200 -9.583087 3.657710 8.731224 5.781628 -32.279327 8.599968 -3.445649 11.604827 0.142378 -1.694384 3.657685 0.324680 0.099420 0.152600 -3.650789 -2.430486 -7.913626 12.324158 -5.656446 13.432387 3.510993 -6.140310 9.779698 1.065754 4.187328 -8.701756 5.860854 0.755205 32.025971 -2.796970 5.233900 -9.363950 -8.633995 -13.127849 3.080305 -13.489502 -19.969262 4.681566 -75.550696 -69.168199 53.211532 -3.965938 3.479497 0.111490 0.193240 -0.006140 0.044940 7.329269 8.493223 3.701332 29.266633 10.540407 -5.855375 118.082313 74.302506 93.734818 2.443694 0.573370 -0.109710 0.128930 -0.048660 -0.155620 
0.125850 16.684400 -3.192390 0.104859 14.147721 5.945211 -15.315916 12.872950 3.288347 -9.034505 0.597560 -1.902330 -11.027110 7.898407 16.919907 0.083153 5.119357 2.794245 0.310190 0.253880 0.333290 18.354548 -9.650108 3.551874 7.860813 5.239692 -31.748213 8.192092 -3.634105 12.390894 0.122341 -1.724383 3.643714 0.272670 0.046020 0.145400 -3.710276 -2.480452 -7.929962 13.752595 -6.387347 13.347676 2.260893 -6.705097 10.179176 1.461968 4.059971 -9.521089 5.522356 1.212756 34.151116 -3.451270 6.224070 -8.907020 -11.010094 -14.780879 3.762293 -20.215199 -19.602178 3.712692 -68.044767 -63.966018 42.961893 -3.864136 3.514170 0.149990 0.154200 0.029010 0.020820 8.591423 9.609044 4.998302 33.509076 13.118703 -0.987674 98.372258 76.026382 66.429206 3.438460 0.532744 -0.101020 0.098350 -0.053260 -0.174970 
0.215540 16.749250 -3.109400 0.513864 12.984758 6.346163 -15.282167 12.886275 3.397203 -9.549537 0.361814 -2.434667 -12.210830 8.271545 17.509804 0.171945 5.214799 2.753301 0.281640 0.215250 0.321350 18.365721 -9.716577 3.489568 7.149547 4.895278 -31.785652 7.319542 -3.689804 13.261954 0.119053 -1.722026 3.649068 0.218240 0.015030 0.142230 -3.766450 -2.479821 -8.007130 14.754414 -6.699726 13.250665 2.186196 -6.845966 9.746958 1.689165 4.029882 -10.253999 5.405941 1.300426 36.207248 -3.353770 6.505900 -7.548780 -13.606603 -16.585087 4.685177 -27.583811 -19.082526 2.791936 -60.676775 -57.445945 32.828070 -3.785599 3.494923 0.164070 0.125600 0.048920 0.013910 10.597360 11.245641 5.805102 36.308844 12.872663 -0.596637 78.747888 73.799462 47.749851 2.874847 -1.182695 -0.081380 0.062140 -0.058460 -0.171740 
0.302160 16.803720 -3.002910 1.149723 11.663168 6.874879 -15.260005 12.866890 3.494639 -10.268618 -0.087001 -3.341237 -13.096359 8.667109 18.868935 0.246944 5.347274 2.697240 0.275070 0.207750 0.329460 18.372649 -9.784931 3.407077 6.253374 4.511807 -31.789763 6.858991 -3.825601 14.201452 0.100050 -1.765444 3.632184 0.190200 -0.015850 0.139330 -3.790326 -2.433098 -8.033014 15.268272 -6.873267 13.016082 2.161428 -6.913673 8.724277 2.023525 4.716944 -10.211186 6.664463 0.795930 37.155313 -3.096120 6.623640 -7.137580 -16.619763 -16.989122 5.141065 -35.593337 -18.548151 2.011174 -52.491975 -50.654657 23.545231 -3.747111 3.438747 0.177270 0.101120 0.075040 0.010840 12.940647 11.107595 5.509846 41.225972 11.002157 -3.655889 62.328416 67.297772 32.933844 2.471097 -1.767221 -0.064630 0.041050 -0.073910 -0.171470 
0.380860 16.847930 -2.894430 1.738820 9.581736 7.334792 -15.265246 12.862365 3.621188 -10.370722 -0.869992 -4.680073 -15.530723 9.579145 20.428590 0.365769 5.699033 2.563469 0.276650 0.213410 0.339280 18.355005 -9.791206 3.321700 5.514691 4.219082 -31.550244 6.219934 -3.856717 14.913473 0.082168 -1.789493 3.623012 0.173020 -0.043050 0.142210 -3.721449 -2.528055 -8.093725 15.280157 -6.714723 13.237264 2.623506 -6.625516 7.200547 2.310462 5.170932 -9.726630 7.482043 0.814290 37.864005 -2.887930 7.137600 -7.020980 -20.702025 -16.827576 5.065017 -42.114784 -18.158122 1.498222 -43.624505 -42.971259 15.435679 -3.732749 3.374401 0.185980 0.083620 0.100540 0.009930 16.535799 10.697129 4.947978 44.252668 9.210767 -6.395190 49.078482 60.775589 21.917253 2.357515 -1.807695 -0.046220 0.019970 -0.089440 -0.171070 
0.475950 16.867590 -2.784120 2.419832 6.759656 7.599095 -15.267983 12.797764 3.801631 -10.329530 -2.063964 -6.567310 -19.080787 11.096300 22.825762 0.536362 6.357274 2.335570 0.268920 0.201170 0.337270 18.345921 -9.768265 3.231517 4.699477 4.021844 -31.245638 5.758544 -3.896309 15.582970 0.072850 -1.835364 3.608941 0.158150 -0.047820 0.143310 -3.657625 -2.596279 -8.185408 15.317101 -6.353998 13.803639 2.797071 -5.986084 5.450460 2.612799 5.039466 -8.915545 7.173257 0.906898 38.362966 -2.841940 7.144130 -6.780220 -25.023791 -15.847710 4.576096 -47.424825 -17.167692 1.020514 -36.856511 -35.875600 10.017631 -3.739682 3.310175 0.192360 0.077370 0.106510 0.008850 20.344762 10.068353 4.226762 45.358190 7.722014 -8.174952 38.680332 53.877422 14.155299 2.324222 -1.727041 -0.042860 0.014600 -0.089370 -0.170610 
